<svg width="50" height="50" viewBox="0 0 50 50" fill="none" xmlns="http://www.w3.org/2000/svg">
<path d="M21.6667 1.875C20.8333 1.875 20.0846 2.29167 19.5833 2.95898L17.0833 6.875H7.5C6.08398 6.875 5 7.95898 5 9.375V14.375C5 15.791 6.08398 16.875 7.5 16.875H7.58138L10.498 44.7917C10.7487 46.9596 12.5 48.5417 14.6647 48.5417H35.3353C37.5 48.5417 39.2513 46.9596 39.502 44.7917L42.4186 16.875H42.5C43.916 16.875 45 15.791 45 14.375V9.375C45 7.95898 43.916 6.875 42.5 6.875H32.9167L30.3353 2.95898C29.9186 2.29167 29.0853 1.875 28.252 1.875H21.6667ZM21.748 3.54167H28.3333C28.584 3.54167 28.8346 3.70768 29.0007 3.8737L30.9147 6.875H19.0853L20.9993 3.8737C21.1654 3.70768 21.416 3.54167 21.748 3.54167ZM7.5 8.54167H42.5C43.0013 8.54167 43.3333 8.8737 43.3333 9.375V14.375C43.3333 14.8763 43.0013 15.2083 42.5 15.2083H7.5C6.9987 15.2083 6.66667 14.8763 6.66667 14.375V9.375C6.66667 8.8737 6.9987 8.54167 7.5 8.54167ZM10 10.2083C9.4987 10.2083 9.16667 10.5404 9.16667 11.0417V12.7083C9.16667 13.2096 9.4987 13.5417 10 13.5417C10.5013 13.5417 10.8333 13.2096 10.8333 12.7083V11.0417C10.8333 10.5404 10.5013 10.2083 10 10.2083ZM14.1667 10.2083C13.6654 10.2083 13.3333 10.5404 13.3333 11.0417V12.7083C13.3333 13.2096 13.6654 13.5417 14.1667 13.5417C14.668 13.5417 15 13.2096 15 12.7083V11.0417C15 10.5404 14.668 10.2083 14.1667 10.2083ZM18.3333 10.2083C17.832 10.2083 17.5 10.5404 17.5 11.0417V12.7083C17.5 13.2096 17.832 13.5417 18.3333 13.5417C18.8346 13.5417 19.1667 13.2096 19.1667 12.7083V11.0417C19.1667 10.5404 18.8346 10.2083 18.3333 10.2083ZM22.5 10.2083C21.9987 10.2083 21.6667 10.5404 21.6667 11.0417V12.7083C21.6667 13.2096 21.9987 13.5417 22.5 13.5417C23.0013 13.5417 23.3333 13.2096 23.3333 12.7083V11.0417C23.3333 10.5404 23.0013 10.2083 22.5 10.2083ZM27.5 10.2083C26.9987 10.2083 26.6667 10.5404 26.6667 11.0417V12.7083C26.6667 13.2096 26.9987 13.5417 27.5 13.5417C28.0013 13.5417 28.3333 13.2096 28.3333 12.7083V11.0417C28.3333 10.5404 28.0013 10.2083 27.5 10.2083ZM31.6667 10.2083C31.1654 10.2083 30.8333 10.5404 30.8333 11.0417V12.7083C30.8333 13.2096 31.1654 13.5417 31.6667 13.5417C32.168 13.5417 32.5 13.2096 32.5 12.7083V11.0417C32.5 10.5404 32.168 10.2083 31.6667 10.2083ZM35.8333 10.2083C35.332 10.2083 35 10.5404 35 11.0417V12.7083C35 13.2096 35.332 13.5417 35.8333 13.5417C36.3346 13.5417 36.6667 13.2096 36.6667 12.7083V11.0417C36.6667 10.5404 36.3346 10.2083 35.8333 10.2083ZM40 10.2083C39.4987 10.2083 39.1667 10.5404 39.1667 11.0417V12.7083C39.1667 13.2096 39.4987 13.5417 40 13.5417C40.5013 13.5417 40.8333 13.2096 40.8333 12.7083V11.0417C40.8333 10.5404 40.5013 10.2083 40 10.2083ZM9.24805 16.875H40.752L37.8353 44.6257C37.666 45.8757 36.6667 46.875 35.3353 46.875H14.6647C13.4147 46.875 12.334 45.8757 12.1647 44.6257L9.24805 16.875ZM25 21.0417C24.4987 21.0417 24.1667 21.3737 24.1667 21.875V38.5417C24.1667 39.043 24.4987 39.375 25 39.375C25.5013 39.375 25.8333 39.043 25.8333 38.5417V21.875C25.8333 21.3737 25.5013 21.0417 25 21.0417ZM17.5 21.123C16.9987 21.123 16.6667 21.5397 16.748 21.9564L17.5814 38.623C17.5 39.0397 17.9167 39.375 18.3333 39.375C18.8346 39.375 19.1667 38.9583 19.1667 38.5417L18.3333 21.875C18.3333 21.3737 17.9167 21.0417 17.5 21.123ZM32.5814 21.123C32.0833 21.123 31.748 21.4583 31.748 21.875L30.9147 38.5417C30.8333 38.9583 31.1654 39.375 31.6667 39.375C32.168 39.375 32.5 39.0397 32.5 38.623L33.3333 21.9564C33.3333 21.4583 32.998 21.123 32.5814 21.123ZM15.8333 43.5417C15.332 43.5417 15 43.8737 15 44.375C15 44.8763 15.332 45.2083 15.8333 45.2083H27.5C28.0013 45.2083 28.3333 44.8763 28.3333 44.375C28.3333 43.8737 28.0013 43.5417 27.5 43.5417H15.8333ZM30.8333 43.5417C30.332 43.5417 30 43.8737 30 44.375C30 44.8763 30.332 45.2083 30.8333 45.2083H34.1667C34.668 45.2083 35 44.8763 35 44.375C35 43.8737 34.668 43.5417 34.1667 43.5417H30.8333Z" fill="white"/>
</svg>
