<svg width="28" height="28" viewBox="0 0 28 28" fill="none" xmlns="http://www.w3.org/2000/svg">
<path d="M25.4706 14H10.9412M22.4118 18.875L27 14L22.4118 9.125M14.7647 5.875V4.25C14.7647 3.38805 14.4424 2.5614 13.8688 1.9519C13.2952 1.34241 12.5171 1 11.7059 1H4.05882C3.24757 1 2.46955 1.34241 1.89591 1.9519C1.32227 2.5614 1 3.38805 1 4.25V23.75C1 24.612 1.32227 25.4386 1.89591 26.0481C2.46955 26.6576 3.24757 27 4.05882 27H11.7059C12.5171 27 13.2952 26.6576 13.8688 26.0481C14.4424 25.4386 14.7647 24.612 14.7647 23.75V22.125" stroke="#FF4040" stroke-width="2" stroke-linecap="round" stroke-linejoin="round"/>
</svg>
