<svg width="28" height="28" viewBox="0 0 28 28" fill="none" xmlns="http://www.w3.org/2000/svg">
<g clip-path="url(#clip0_3_2497)">
<path d="M13.9998 14.0001C12.1665 14.0001 10.5971 13.3473 9.2915 12.0417C7.98595 10.7362 7.33317 9.16675 7.33317 7.33341C7.33317 5.50008 7.98595 3.93064 9.2915 2.62508C10.5971 1.31953 12.1665 0.666748 13.9998 0.666748C15.8332 0.666748 17.4026 1.31953 18.7082 2.62508C20.0137 3.93064 20.6665 5.50008 20.6665 7.33341C20.6665 9.16675 20.0137 10.7362 18.7082 12.0417C17.4026 13.3473 15.8332 14.0001 13.9998 14.0001ZM0.666504 27.3334V22.6667C0.666504 21.7223 0.909838 20.854 1.3965 20.0617C1.88317 19.2695 2.52873 18.6656 3.33317 18.2501C5.05539 17.389 6.80539 16.7429 8.58317 16.3117C10.3609 15.8806 12.1665 15.6656 13.9998 15.6667C15.8332 15.6667 17.6387 15.8823 19.4165 16.3134C21.1943 16.7445 22.9443 17.3901 24.6665 18.2501C25.4721 18.6667 26.1182 19.2712 26.6048 20.0634C27.0915 20.8556 27.3343 21.7234 27.3332 22.6667V27.3334H0.666504Z" fill="white"/>
</g>
<defs>
<clipPath id="clip0_3_2497">
<rect width="28" height="28" fill="white"/>
</clipPath>
</defs>
</svg>
