<svg width="24" height="28" viewBox="0 0 24 28" fill="none" xmlns="http://www.w3.org/2000/svg">
<g clip-path="url(#clip0_3_2502)">
<path d="M20.6316 13.2632H13.2632V5.89474H20.6316M18.4211 22.1053C17.8348 22.1053 17.2725 21.8724 16.858 21.4578C16.4434 21.0433 16.2105 20.481 16.2105 19.8947C16.2105 19.3085 16.4434 18.7462 16.858 18.3317C17.2725 17.9171 17.8348 17.6842 18.4211 17.6842C19.0073 17.6842 19.5696 17.9171 19.9841 18.3317C20.3987 18.7462 20.6316 19.3085 20.6316 19.8947C20.6316 20.481 20.3987 21.0433 19.9841 21.4578C19.5696 21.8724 19.0073 22.1053 18.4211 22.1053ZM10.3158 13.2632H2.94737V5.89474H10.3158M5.15789 22.1053C4.57163 22.1053 4.00937 21.8724 3.59482 21.4578C3.18026 21.0433 2.94737 20.481 2.94737 19.8947C2.94737 19.3085 3.18026 18.7462 3.59482 18.3317C4.00937 17.9171 4.57163 17.6842 5.15789 17.6842C5.74416 17.6842 6.30642 17.9171 6.72097 18.3317C7.13553 18.7462 7.36842 19.3085 7.36842 19.8947C7.36842 20.481 7.13553 21.0433 6.72097 21.4578C6.30642 21.8724 5.74416 22.1053 5.15789 22.1053ZM11.7895 0C5.27579 0 0 0.736842 0 5.89474V19.8947C0 21.2627 0.54342 22.5746 1.51071 23.5419C2.47801 24.5092 3.78994 25.0526 5.15789 25.0526L2.94737 27.2632V28H20.6316V27.2632L18.4211 25.0526C19.789 25.0526 21.1009 24.5092 22.0682 23.5419C23.0355 22.5746 23.5789 21.2627 23.5789 19.8947V5.89474C23.5789 0.736842 18.3032 0 11.7895 0Z" fill="white"/>
</g>
<defs>
<clipPath id="clip0_3_2502">
<rect width="23.5789" height="28" fill="white"/>
</clipPath>
</defs>
</svg>
