<svg width="21" height="28" viewBox="0 0 21 28" fill="none" xmlns="http://www.w3.org/2000/svg">
<g clip-path="url(#clip0_3_2511)">
<path d="M1.25515e-06 21V8.90909C1.25515e-06 6.85151 0.901516 5.50455 2.70455 4.86818C4.50758 4.23182 6.57576 3.88182 8.90909 3.81818L9.86364 1.90909H3.81818V0H16.5455V1.90909H12.4091L11.4545 3.81818C13.9788 3.88182 16.0949 4.22673 17.8029 4.85291C19.5109 5.47909 20.3645 6.83115 20.3636 8.90909V21C20.3636 22.2515 19.9343 23.307 19.0756 24.1665C18.217 25.0261 17.1615 25.4554 15.9091 25.4545L17.8182 27.3636V28H15.2727L12.7273 25.4545H7.63636L5.09091 28H2.54546V27.3636L4.45455 25.4545C3.20303 25.4545 2.14752 25.0252 1.288 24.1665C0.428486 23.3079 -0.00084723 22.2524 1.25515e-06 21ZM10.1818 21.6364C10.7121 21.6364 11.1631 21.4505 11.5347 21.0789C11.9064 20.7073 12.0918 20.2567 12.0909 19.7273C12.0909 19.197 11.9051 18.746 11.5335 18.3744C11.1618 18.0027 10.7113 17.8173 10.1818 17.8182C9.65152 17.8182 9.20055 18.004 8.82891 18.3756C8.45727 18.7473 8.27188 19.1978 8.27273 19.7273C8.27273 20.2576 8.45855 20.7085 8.83018 21.0802C9.20182 21.4518 9.65236 21.6372 10.1818 21.6364ZM2.54546 14H17.8182V10.1818H2.54546V14Z" fill="white"/>
</g>
<defs>
<clipPath id="clip0_3_2511">
<rect width="20.3636" height="28" fill="white"/>
</clipPath>
</defs>
</svg>
