<svg width="28" height="30" viewBox="0 0 28 30" fill="none" xmlns="http://www.w3.org/2000/svg">
<path d="M16.6917 27.2177H14C10.1024 27.2177 6.79467 25.8974 4.0768 23.2566C1.35893 20.6171 0 17.4036 0 13.6161C0 9.82983 1.35831 6.6139 4.07493 3.96834C6.79156 1.32278 10.0987 0 13.9963 0C15.9438 0 17.7669 0.354435 19.4656 1.06331C21.163 1.77097 22.6458 2.74052 23.9139 3.97197C25.1807 5.20463 26.1781 6.64415 26.9061 8.29051C27.6354 9.93447 28 11.7072 28 13.6089C28 16.8242 27.1724 19.8393 25.5173 22.6542C23.8622 25.4691 21.7249 27.8359 19.1053 29.7544C18.8415 29.8935 18.5839 29.974 18.3325 29.9957C18.0812 30.0163 17.831 29.9625 17.5821 29.8342C17.3332 29.7072 17.1341 29.5397 16.9848 29.3316C16.8355 29.1236 16.7558 28.8774 16.7459 28.5931L16.6917 27.2177ZM14.0672 22.8103C14.448 22.8103 14.7716 22.6796 15.0379 22.4183C15.3029 22.1558 15.4355 21.8395 15.4355 21.4693C15.4355 21.098 15.3011 20.7834 15.0323 20.5258C14.7622 20.2669 14.4368 20.1375 14.056 20.1375C13.674 20.1375 13.3504 20.2687 13.0853 20.5312C12.819 20.7925 12.6859 21.1089 12.6859 21.4802C12.6859 21.8504 12.8209 22.1649 13.0909 22.4238C13.3597 22.6814 13.6852 22.8103 14.0672 22.8103ZM10.1901 9.43729C10.4067 9.51955 10.6226 9.51471 10.8379 9.42277C11.0519 9.33084 11.2274 9.18265 11.3643 8.97822C11.6206 8.56935 11.9834 8.24273 12.4525 7.99838C12.9217 7.75644 13.4612 7.63548 14.0709 7.63548C14.9881 7.63548 15.7335 7.86834 16.3072 8.33406C16.8796 8.801 17.1659 9.43124 17.1659 10.2248C17.1659 10.7147 17.0433 11.1744 16.7981 11.6038C16.553 12.0308 16.1348 12.5316 15.5437 13.1062C14.7423 13.8647 14.1668 14.5155 13.8171 15.0587C13.4686 15.603 13.2944 16.1304 13.2944 16.6409C13.2944 16.8792 13.374 17.0824 13.5333 17.2506C13.6939 17.4199 13.8868 17.5046 14.112 17.5046C14.3372 17.5046 14.527 17.4199 14.6813 17.2506C14.8344 17.0837 14.9259 16.8768 14.9557 16.63C15.0155 16.255 15.2233 15.8389 15.5792 15.3816C15.9364 14.9232 16.3694 14.446 16.8784 13.95C17.5803 13.2689 18.0824 12.6266 18.3848 12.023C18.6872 11.4181 18.8384 10.8133 18.8384 10.2085C18.8384 8.96491 18.3966 7.96451 17.5131 7.20725C16.6295 6.44999 15.5064 6.07137 14.1437 6.07137C13.2278 6.07137 12.3841 6.2885 11.6125 6.72278C10.8397 7.15584 10.2598 7.67358 9.8728 8.276C9.73591 8.52035 9.69547 8.75503 9.75147 8.98003C9.80747 9.20503 9.95369 9.35624 10.1901 9.43729Z" fill="white"/>
</svg>
