<svg width="35" height="35" viewBox="0 0 35 35" fill="none" xmlns="http://www.w3.org/2000/svg">
<path d="M17.5 0C19.7981 0 22.0738 0.452651 24.197 1.33211C26.3202 2.21157 28.2493 3.50061 29.8744 5.12563C31.4994 6.75066 32.7884 8.67984 33.6679 10.803C34.5473 12.9262 35 15.2019 35 17.5C35 22.1413 33.1563 26.5925 29.8744 29.8744C26.5925 33.1563 22.1413 35 17.5 35C9.45 35 2.7125 29.61 0.63 22.2775L7.3325 25.0425C7.56307 26.163 8.17278 27.1699 9.05891 27.8935C9.94505 28.617 11.0535 29.0131 12.1975 29.015C14.9275 29.015 17.15 26.7925 17.15 24.0625V23.835L23.1 19.5825H23.24C26.88 19.5825 29.8375 16.625 29.8375 12.985C29.8375 9.345 26.88 6.3875 23.24 6.3875C19.6 6.3875 16.625 9.345 16.625 12.985V13.0725L12.4775 19.1275L12.1975 19.11C11.165 19.11 10.2025 19.425 9.415 19.9675L0 16.1C0.7525 7.0875 8.2775 0 17.5 0ZM10.99 26.5475C12.39 27.125 14 26.4775 14.5775 25.0775C15.155 23.6775 14.49 22.085 13.125 21.5075L10.885 20.58C11.7425 20.265 12.705 20.2475 13.615 20.6325C14.5425 21 15.26 21.7175 15.6275 22.645C16.0125 23.555 16.0125 24.57 15.6275 25.48C14.875 27.37 12.6525 28.28 10.7625 27.4925C9.8875 27.125 9.2225 26.46 8.855 25.6725L10.99 26.5475ZM27.65 12.985C27.65 15.4175 25.6725 17.395 23.24 17.395C22.0734 17.3904 20.9562 16.9237 20.133 16.0972C19.3097 15.2706 18.8475 14.1516 18.8475 12.985C18.8452 12.4075 18.9572 11.8353 19.1771 11.3013C19.3971 10.7674 19.7205 10.2822 20.1289 9.87387C20.5372 9.46553 21.0224 9.14207 21.5563 8.92214C22.0903 8.70222 22.6625 8.59019 23.24 8.5925C24.4066 8.59249 25.5256 9.05471 26.3522 9.87797C27.1787 10.7012 27.6454 11.8184 27.65 12.985ZM19.95 12.985C19.95 14.805 21.42 16.2925 23.2575 16.2925C25.0775 16.2925 26.5475 14.805 26.5475 12.985C26.5475 11.165 25.0775 9.6775 23.2575 9.6775C21.42 9.6775 19.95 11.165 19.95 12.985Z" fill="white"/>
</svg>
