<svg width="30" height="30" viewBox="0 0 30 30" fill="none" xmlns="http://www.w3.org/2000/svg">
<path d="M15 0C16.9698 0 18.9204 0.387987 20.7403 1.14181C22.5601 1.89563 24.2137 3.00052 25.6066 4.3934C26.9995 5.78628 28.1044 7.43986 28.8582 9.25975C29.612 11.0796 30 13.0302 30 15C30 18.9782 28.4196 22.7936 25.6066 25.6066C22.7936 28.4196 18.9782 30 15 30C8.1 30 2.325 25.38 0.54 19.095L6.285 21.465C6.48264 22.4255 7.00524 23.2885 7.76478 23.9087C8.52433 24.5289 9.47441 24.8684 10.455 24.87C12.795 24.87 14.7 22.965 14.7 20.625V20.43L19.8 16.785H19.92C23.04 16.785 25.575 14.25 25.575 11.13C25.575 8.01 23.04 5.475 19.92 5.475C16.8 5.475 14.25 8.01 14.25 11.13V11.205L10.695 16.395L10.455 16.38C9.57 16.38 8.745 16.65 8.07 17.115L0 13.8C0.645 6.075 7.095 0 15 0ZM9.42 22.755C10.62 23.25 12 22.695 12.495 21.495C12.99 20.295 12.42 18.93 11.25 18.435L9.33 17.64C10.065 17.37 10.89 17.355 11.67 17.685C12.465 18 13.08 18.615 13.395 19.41C13.725 20.19 13.725 21.06 13.395 21.84C12.75 23.46 10.845 24.24 9.225 23.565C8.475 23.25 7.905 22.68 7.59 22.005L9.42 22.755ZM23.7 11.13C23.7 13.215 22.005 14.91 19.92 14.91C18.9201 14.906 17.9625 14.506 17.2568 13.7976C16.5512 13.0891 16.155 12.1299 16.155 11.13C16.153 10.635 16.249 10.1445 16.4376 9.68685C16.6261 9.22917 16.9033 8.81333 17.2533 8.46332C17.6033 8.11331 18.0192 7.83606 18.4769 7.64755C18.9345 7.45905 19.425 7.36302 19.92 7.365C20.9199 7.36499 21.8791 7.76118 22.5876 8.46683C23.296 9.17247 23.696 10.1301 23.7 11.13ZM17.1 11.13C17.1 12.69 18.36 13.965 19.935 13.965C21.495 13.965 22.755 12.69 22.755 11.13C22.755 9.57 21.495 8.295 19.935 8.295C18.36 8.295 17.1 9.57 17.1 11.13Z" fill="white"/>
</svg>
