<svg width="847" height="798" viewBox="0 0 847 798" fill="none" xmlns="http://www.w3.org/2000/svg">
<path d="M0 331.064C4.94911 313.182 13.315 297.29 31.1856 289.81C40.7652 285.765 51.0235 283.572 61.4186 283.345C139.403 282.827 217.388 283.076 295.414 283.055H306.555C306.555 277.502 306.555 272.405 306.555 267.287C306.845 250.96 315.355 242.299 331.632 242.154C350.869 242.009 370.106 242.154 389.344 242.154L391.083 239.875C388.689 238.315 386.38 236.627 384.167 234.819C359.566 212.718 335 190.568 310.469 168.37C296.367 155.648 296.47 144.273 311.069 131.758C334.275 111.839 357.537 91.9689 380.854 72.1468C382.924 70.427 384.767 68.5829 388.577 65.1227H340.391C323.514 65.1227 318.71 61.5383 313.202 44.8795H236.584C233.559 45.0149 230.527 44.9319 227.514 44.6309C221.012 43.657 216.995 39.803 216.643 33.1104C216.291 26.4179 219.977 22.1289 226.354 20.6785C229.331 20.1311 232.361 19.9363 235.383 20.0983C261.267 20.0983 287.152 20.0983 312.85 20.0983C319.621 2.87997 323.804 0 341.84 0H505.43C522.907 0 527.691 3.37725 533.53 20.0983H610.977C624.188 20.0983 630.276 24.2424 630.069 32.924C629.883 41.212 624.023 44.9829 611.163 44.9829H533.717C527.153 62.512 523.239 65.2057 504.892 65.2264C481.203 65.2264 457.492 65.0812 433.803 65.3713C430.083 65.3648 426.458 66.5403 423.449 68.7282C392.388 94.856 361.782 121.295 331.031 147.65C330.203 148.355 329.52 149.225 326.89 151.898C329.177 152.969 331.354 154.26 333.392 155.752C363.363 182.619 393.244 209.555 423.035 236.56C425.084 238.522 427.515 240.043 430.176 241.026C432.837 242.01 435.671 242.436 438.504 242.278C463.58 242.009 488.657 242.113 513.734 242.278C531.543 242.278 539.971 250.815 540.136 268.593C540.136 273.213 540.136 277.813 540.136 283.097H550.78C629.331 283.097 707.868 283.097 786.391 283.097C818.612 283.097 842.301 303.216 846.111 333.363C847.851 347.121 843.067 355.244 830.436 360.797C828.696 361.563 827.537 363.967 826.46 365.79C825.983 366.619 826.46 367.862 826.46 369.064C826.46 470.55 826.46 572.036 826.46 673.523C826.46 675.18 826.605 676.817 826.708 679.179C843.875 682.598 848.099 694.678 846.774 710.425C846.38 715.356 846.774 720.35 846.774 725.323C846.525 738.811 838.118 747.597 824.617 747.825C809.19 748.094 793.742 748.032 778.315 747.825C774.07 747.825 772.102 749.026 770.715 753.233C761.5 781.246 738.225 798.236 710.125 797.905C682.439 797.573 659.888 780.272 650.839 752.445C650.425 751.14 649.886 749.897 649.141 747.949C639.967 747.949 630.628 747.679 621.331 748.156C619.508 748.156 616.961 750.912 616.236 752.922C606.09 781.08 584.078 797.78 556.495 797.925C528.519 798.07 506.259 781.35 495.905 752.922C495.23 751.641 494.26 750.539 493.075 749.706C491.891 748.874 490.525 748.336 489.092 748.135C445.275 747.845 401.458 747.99 357.64 747.825C353.064 747.825 351.718 749.897 350.434 753.73C342.151 779.236 320.408 796.371 295.207 797.739C268.122 799.231 243.583 785.473 233.954 760.443C229.688 749.337 224.304 746.457 213.847 747.887C209.415 748.225 204.964 748.225 200.532 747.887C192.787 759.697 187.424 771.549 178.851 780.21C146.63 812.802 90.285 798.464 76.5766 754.683C74.775 748.923 72.2073 747.617 66.7612 747.783C54.3366 748.135 41.9121 747.307 29.4876 748.053C16.4211 748.861 6.35722 745.09 0 733.238V695.154C4.28647 686.867 10.3537 680.65 20.2727 679.304V369.561C20.4992 368.185 20.457 366.777 20.1484 365.417C19.3822 363.697 18.2433 361.273 16.7938 360.859C7.84814 358.517 3.52029 351.825 0 344.283V331.064ZM800.907 361.957H791.547C766.47 361.957 741.393 361.957 716.316 361.957C712.754 361.957 708.24 362.578 705.962 360.714C702.297 357.834 697.804 353.047 697.886 349.152C697.969 345.257 702.67 340.677 706.459 337.942C708.924 336.16 713.376 336.948 716.937 336.948C748.689 336.948 780.385 336.948 812.027 336.948H821.241C820.91 334.379 820.889 333.011 820.558 331.706C816.748 316.539 804.158 308.085 785.252 308.085C544.091 308.085 302.938 308.085 61.7914 308.085C58.4839 307.98 55.1734 308.146 51.8932 308.582C36.9837 311.069 26.1951 322.9 26.5885 336.927H641.603C645.757 336.802 649.914 337.038 654.028 337.632C660.24 338.709 663.533 342.977 663.615 349.255C663.698 355.534 660.571 359.844 654.338 361.107C650.546 361.781 646.696 362.072 642.846 361.978C447.711 361.978 252.584 361.978 57.4635 361.978H46.0536V405.904C67.196 405.904 87.8208 405.904 108.446 405.904C130.478 405.904 141.95 417.548 142.054 439.74C142.054 454.907 142.054 470.074 142.054 485.323V517.419H160.339C160.339 494.171 160.194 471.586 160.339 449.043C160.546 423.495 176.346 406.733 201.754 406.132C227.162 405.531 252.467 405.531 277.813 406.132C303.159 406.733 319.104 423.785 319.228 449.084C319.228 459.009 319.228 468.934 319.228 478.88V517.398H343.911C343.911 494.088 343.787 471.483 343.911 448.877C344.077 423.889 359.794 406.919 384.726 406.194C410.32 405.448 435.998 405.51 461.613 406.194C487.228 406.878 502.676 423.806 502.842 449.312C502.966 469.183 502.842 489.032 502.842 508.903V517.688H526.656C526.986 517.075 527.229 516.42 527.38 515.74C527.38 493.943 527.436 472.152 527.546 450.369C527.65 423.205 544.112 406.339 571.135 406.07C595.115 405.849 619.094 405.849 643.074 406.07C669.993 406.339 686.332 422.791 686.559 449.582C686.704 469.431 686.559 489.302 686.559 509.151V517.709H704.844V508.24C704.844 485.448 704.844 462.449 704.844 439.574C704.948 417.88 716.503 406.277 737.976 406.132C753.403 406.132 768.851 406.132 784.278 406.132H800.845L800.907 361.957ZM821.469 704.914H810.287C584.878 704.914 359.476 704.914 134.082 704.914C130.239 705.071 126.392 704.8 122.609 704.105C119.689 703.655 117.063 702.072 115.299 699.699C113.536 697.326 112.777 694.353 113.188 691.425C113.241 688.468 114.438 685.648 116.528 683.557C118.617 681.467 121.436 680.269 124.39 680.215C127.931 679.905 131.534 680.008 135.117 679.987H159.531V543.36H141.847C141.847 557.864 141.971 571.746 141.847 585.732C141.619 606.452 130.313 618.055 109.626 618.387C93.9295 618.636 78.2124 618.387 62.5161 618.387H45.95V680.112C53.7361 680.112 60.8802 679.822 68.0036 680.112C70.885 680.303 73.6028 681.52 75.6654 683.543C77.7281 685.565 78.9994 688.259 79.2496 691.137C79.4997 694.016 78.7122 696.889 77.0293 699.237C75.3465 701.585 72.8795 703.253 70.0744 703.94C66.2913 704.629 62.4457 704.913 58.6024 704.789C47.441 704.893 36.3004 704.789 25.6153 704.789V722.235H821.469V704.914ZM185.064 593.026H293.84C294.006 590.187 294.255 587.784 294.255 585.38C294.255 540.722 294.255 496.063 294.255 451.405C294.255 436.714 288.519 430.996 273.713 430.934C251.114 430.823 228.529 430.823 205.957 430.934C190.447 430.934 185.084 436.341 185.084 451.654C185.084 487.568 185.084 523.4 185.084 559.149L185.064 593.026ZM661.338 593.171C661.483 589.98 661.69 587.556 661.71 585.111C661.71 540.466 661.71 495.815 661.71 451.156C661.71 436.383 656.202 430.975 641.106 430.913C618.507 430.913 595.922 430.913 573.351 430.913C558.028 430.913 552.519 436.569 552.519 451.964C552.519 496.347 552.519 540.729 552.519 585.111C552.519 587.722 552.768 590.332 552.913 593.171H661.338ZM477.537 592.922C477.703 590.104 477.951 587.68 477.951 585.256C477.951 540.611 477.951 495.946 477.951 451.26C477.951 436.424 472.443 430.892 457.472 430.83C434.873 430.719 412.281 430.719 389.696 430.83C374.248 430.83 368.802 436.342 368.781 451.695C368.781 496.077 368.781 540.466 368.781 584.862V592.943L477.537 592.922ZM319.414 679.304H527.008V543.609H502.842C502.842 559.729 502.842 575.165 502.842 590.581C502.842 609.457 494.041 618.304 474.97 618.366C440.554 618.477 406.131 618.477 371.701 618.366C352.65 618.366 343.911 609.457 343.87 590.56C343.87 574.917 343.87 559.294 343.87 543.484H319.394L319.414 679.304ZM45.7844 593.129C68.1693 593.129 90.0986 593.316 112.049 592.777C113.705 592.777 116.646 587.701 116.646 584.966C116.936 536.502 116.77 488.038 116.956 439.574C116.956 432.488 113.829 430.623 107.389 430.706C88.9597 430.954 70.5093 430.706 52.0795 430.83C49.9948 430.967 47.9203 431.23 45.8673 431.617L45.7844 593.129ZM800.948 430.83H736.61C730.397 430.83 729.838 434.974 729.838 439.823C729.838 488.017 729.838 536.212 729.838 584.386C729.838 591.223 732.427 593.565 739.115 593.461C757.007 593.171 774.898 593.088 792.769 593.461C799.54 593.606 801.673 591.658 801.631 584.717C801.341 536.253 801.486 487.768 801.466 439.305C801.383 436.942 801.134 434.518 800.948 430.83ZM800.948 618.387H740.896C715.654 618.387 704.968 607.551 704.948 582.024V543.609H687.305V679.449H801.01L800.948 618.387ZM185.54 618.781V679.407H293.758V618.781H185.54ZM552.913 679.324H661.027V618.884H552.871L552.913 679.324ZM331.984 282.537H514.521V267.868H331.984V282.537ZM339.169 39.5751H507.377V25.4027H339.169V39.5751ZM101.343 748.198C106.043 764.235 122.237 774.387 139.838 772.709C154.541 771.3 168.56 759.697 169.471 748.198H101.343ZM325.233 748.529H256.111C258.673 755.645 263.367 761.797 269.552 766.146C275.737 770.495 283.113 772.828 290.672 772.828C298.232 772.828 305.607 770.495 311.792 766.146C317.977 761.797 322.671 755.645 325.233 748.529ZM521.582 748.115C526.076 764.027 542.29 774.305 559.891 772.709C574.594 771.383 588.571 759.925 589.772 748.115H521.582ZM745.452 748.115H676.703C680.057 761.852 693.973 772.233 709.214 772.73C726.028 773.6 740.523 763.966 745.452 748.343V748.115Z" fill="white"/>
</svg>
