<svg width="486" height="556" viewBox="0 0 486 556" fill="none" xmlns="http://www.w3.org/2000/svg">
<path d="M0 230.666C3.44743 218.207 9.27489 207.134 21.7231 201.923C28.3961 199.105 35.5417 197.576 42.7827 197.419C97.105 197.058 151.427 197.231 205.778 197.216H213.539C213.539 193.347 213.539 189.796 213.539 186.23C213.741 174.854 219.669 168.82 231.007 168.719C244.407 168.618 257.807 168.719 271.207 168.719L272.419 167.131C270.752 166.044 269.143 164.868 267.601 163.608C250.465 148.209 233.353 132.777 216.265 117.311C206.442 108.447 206.514 100.521 216.683 91.8014C232.848 77.9231 249.052 64.0786 265.294 50.2677C266.736 49.0694 268.02 47.7846 270.674 45.3737H237.108C225.352 45.3737 222.006 42.8763 218.169 31.2694H164.799C162.691 31.3638 160.58 31.3059 158.481 31.0962C153.952 30.4177 151.153 27.7324 150.908 23.0694C150.663 18.4065 153.23 15.4181 157.673 14.4076C159.746 14.0262 161.857 13.8904 163.962 14.0033C181.993 14.0033 200.023 14.0033 217.924 14.0033C222.641 2.0066 225.554 0 238.118 0H352.071C364.245 0 367.577 2.35307 371.645 14.0033H425.592C434.795 14.0033 439.035 16.8907 438.891 22.9396C438.761 28.7141 434.679 31.3415 425.722 31.3415H371.774C367.202 43.5547 364.476 45.4315 351.696 45.4459C335.194 45.4459 318.678 45.3448 302.177 45.5469C299.586 45.5424 297.06 46.3614 294.965 47.8858C273.328 66.0902 252.009 84.511 230.588 102.874C230.011 103.365 229.535 103.971 227.704 105.834C229.297 106.58 230.813 107.479 232.233 108.519C253.11 127.238 273.924 146.006 294.676 164.821C296.104 166.188 297.797 167.248 299.65 167.933C301.504 168.619 303.478 168.915 305.451 168.805C322.919 168.618 340.387 168.69 357.855 168.805C370.26 168.805 376.131 174.753 376.246 187.14C376.246 190.359 376.246 193.564 376.246 197.245H383.66C438.377 197.245 493.084 197.245 547.781 197.245C570.225 197.245 586.727 211.263 589.381 232.268C590.593 241.854 587.261 247.513 578.462 251.382C577.25 251.916 576.442 253.591 575.692 254.861C575.36 255.439 575.692 256.305 575.692 257.142C575.692 327.852 575.692 398.562 575.692 469.271C575.692 470.426 575.793 471.567 575.865 473.213C587.823 475.595 590.766 484.011 589.843 494.983C589.568 498.419 589.843 501.898 589.843 505.363C589.669 514.761 583.813 520.882 574.408 521.041C563.662 521.228 552.902 521.185 542.155 521.041C539.198 521.041 537.828 521.878 536.862 524.809C530.443 544.327 514.23 556.165 494.656 555.934C475.37 555.703 459.662 543.648 453.359 524.26C453.07 523.351 452.695 522.484 452.176 521.127C445.786 521.127 439.281 520.94 432.804 521.272C431.535 521.272 429.76 523.192 429.256 524.592C422.188 544.211 406.855 555.847 387.641 555.948C368.154 556.049 352.648 544.399 345.435 524.592C344.965 523.7 344.29 522.932 343.464 522.352C342.639 521.772 341.688 521.397 340.69 521.257C310.168 521.055 279.646 521.156 249.124 521.041C245.936 521.041 244.998 522.484 244.104 525.155C238.334 542.926 223.189 554.865 205.634 555.818C186.767 556.858 169.674 547.272 162.967 529.833C159.995 522.095 156.245 520.088 148.961 521.084C145.874 521.32 142.773 521.32 139.686 521.084C134.291 529.313 130.555 537.57 124.584 543.605C102.139 566.313 62.8904 556.323 53.3414 525.819C52.0865 521.806 50.2979 520.896 46.5043 521.012C37.8496 521.257 29.195 520.68 20.5403 521.2C11.4385 521.763 4.42829 519.135 0 510.877V484.343C2.98585 478.569 7.21217 474.238 14.1215 473.299V257.489C14.2793 256.53 14.2499 255.549 14.0349 254.601C13.5012 253.403 12.7079 251.714 11.6982 251.425C5.46683 249.794 2.45215 245.131 0 239.876V230.666ZM557.892 252.19H551.373C533.905 252.19 516.437 252.19 498.969 252.19C496.488 252.19 493.343 252.624 491.757 251.324C489.203 249.318 486.073 245.983 486.131 243.269C486.189 240.555 489.463 237.364 492.103 235.459C493.819 234.217 496.921 234.766 499.401 234.766C521.519 234.766 543.598 234.766 565.638 234.766H572.057C571.826 232.976 571.812 232.023 571.581 231.113C568.927 220.546 560.157 214.656 546.988 214.656C379.001 214.656 211.019 214.656 43.0424 214.656C40.7385 214.582 38.4325 214.698 36.1475 215.002C25.762 216.734 18.2469 224.978 18.5209 234.751H446.926C449.819 234.664 452.715 234.828 455.58 235.242C459.907 235.993 462.201 238.967 462.259 243.341C462.316 247.715 460.138 250.718 455.797 251.599C453.155 252.068 450.473 252.271 447.791 252.205C311.865 252.205 175.944 252.205 40.0277 252.205H32.0798V282.81C46.8072 282.81 61.1739 282.81 75.5406 282.81C90.8881 282.81 98.8792 290.923 98.9513 306.385C98.9513 316.952 98.9513 327.52 98.9513 338.145V360.507H111.688C111.688 344.309 111.587 328.574 111.688 312.867C111.832 295.067 122.838 283.388 140.537 282.969C158.236 282.55 175.862 282.55 193.518 282.969C211.173 283.388 222.28 295.269 222.367 312.896C222.367 319.811 222.367 326.726 222.367 333.655V360.493H239.56C239.56 344.252 239.474 328.502 239.56 312.751C239.676 295.341 250.624 283.518 267.991 283.012C285.819 282.493 303.706 282.536 321.549 283.012C339.392 283.489 350.152 295.283 350.268 313.055C350.354 326.899 350.268 340.729 350.268 354.574V360.695H366.856C367.086 360.268 367.256 359.811 367.361 359.338C367.361 344.151 367.399 328.968 367.476 313.791C367.548 294.865 379.015 283.113 397.839 282.926C414.543 282.772 431.246 282.772 447.95 282.926C466.701 283.113 478.082 294.576 478.241 313.242C478.342 327.072 478.241 340.917 478.241 354.747V360.709H490.978V354.112C490.978 338.232 490.978 322.207 490.978 306.27C491.05 291.155 499.099 283.07 514.057 282.969C524.803 282.969 535.564 282.969 546.31 282.969H557.849L557.892 252.19ZM572.216 491.143H564.427C407.412 491.143 250.403 491.143 93.398 491.143C90.7217 491.253 88.0414 491.064 85.4069 490.58C83.3723 490.266 81.5431 489.163 80.3148 487.509C79.0866 485.856 78.5581 483.785 78.8437 481.745C78.8808 479.685 79.7148 477.72 81.1703 476.263C82.6259 474.806 84.5893 473.972 86.6473 473.935C89.1139 473.718 91.6238 473.79 94.1192 473.776H111.126V378.582H98.8071C98.8071 388.687 98.8937 398.36 98.8071 408.104C98.6485 422.541 90.7727 430.625 76.3627 430.856C65.429 431.029 54.4809 430.856 43.5472 430.856H32.0077V473.862C37.4313 473.862 42.4077 473.66 47.3697 473.862C49.3768 473.996 51.2699 474.844 52.7067 476.253C54.1435 477.662 55.0291 479.539 55.2033 481.544C55.3776 483.55 54.829 485.552 53.6568 487.188C52.4846 488.824 50.7661 489.986 48.8122 490.464C46.1769 490.944 43.4982 491.143 40.821 491.056C33.0463 491.128 25.286 491.056 17.843 491.056V503.212H572.216V491.143ZM128.911 413.186H204.682C204.798 411.208 204.971 409.533 204.971 407.859C204.971 376.743 204.971 345.628 204.971 314.513C204.971 304.277 200.975 300.293 190.662 300.249C174.92 300.172 159.188 300.172 143.465 300.249C132.661 300.249 128.925 304.017 128.925 314.686C128.925 339.709 128.925 364.675 128.925 389.582L128.911 413.186ZM460.672 413.287C460.773 411.064 460.917 409.375 460.932 407.671C460.932 376.565 460.932 345.455 460.932 314.339C460.932 304.046 457.095 300.278 446.579 300.235C430.838 300.235 415.105 300.235 399.383 300.235C388.709 300.235 384.872 304.176 384.872 314.902C384.872 345.825 384.872 376.748 384.872 407.671C384.872 409.49 385.045 411.309 385.146 413.287H460.672ZM332.641 413.114C332.756 411.15 332.93 409.461 332.93 407.772C332.93 376.666 332.93 345.546 332.93 314.412C332.93 304.075 329.093 300.221 318.664 300.177C302.922 300.1 287.185 300.1 271.453 300.177C260.692 300.177 256.899 304.017 256.884 314.715C256.884 345.638 256.884 376.565 256.884 407.498V413.128L332.641 413.114ZM222.496 473.299H367.101V378.755H350.268C350.268 389.986 350.268 400.742 350.268 411.482C350.268 424.634 344.137 430.798 330.852 430.842C306.879 430.919 282.901 430.919 258.918 430.842C245.648 430.842 239.56 424.634 239.532 411.468C239.532 400.568 239.532 389.683 239.532 378.668H222.482L222.496 473.299ZM31.8923 413.258C47.4851 413.258 62.7605 413.388 78.0504 413.013C79.2044 413.013 81.2526 409.476 81.2526 407.57C81.4546 373.803 81.3392 340.036 81.469 306.27C81.469 301.332 79.2909 300.033 74.8049 300.091C61.9672 300.264 49.1151 300.091 36.2774 300.177C34.8252 300.273 33.3801 300.456 31.95 300.726L31.8923 413.258ZM557.921 300.177H513.105C508.777 300.177 508.388 303.065 508.388 306.443C508.388 340.022 508.388 373.601 508.388 407.166C508.388 411.93 510.191 413.561 514.85 413.489C527.313 413.287 539.775 413.229 552.224 413.489C556.94 413.59 558.426 412.233 558.397 407.397C558.195 373.63 558.296 339.849 558.282 306.082C558.224 304.436 558.051 302.747 557.921 300.177ZM557.921 430.856H516.091C498.507 430.856 491.064 423.306 491.05 405.52V378.755H478.76V473.4H557.965L557.921 430.856ZM129.243 431.13V473.372H204.625V431.13H129.243ZM385.146 473.314H460.456V431.203H385.117L385.146 473.314ZM231.252 196.856H358.403V186.635H231.252V196.856ZM236.257 27.5736H353.427V17.6991H236.257V27.5736ZM70.593 521.3C73.8673 532.474 85.1472 539.548 97.408 538.379C107.649 537.397 117.415 529.313 118.049 521.3H70.593ZM226.55 521.532H178.401C180.186 526.49 183.455 530.776 187.764 533.806C192.072 536.836 197.21 538.462 202.475 538.462C207.741 538.462 212.878 536.836 217.187 533.806C221.495 530.776 224.765 526.49 226.55 521.532ZM363.322 521.243C366.452 532.33 377.746 539.49 390.007 538.379C400.248 537.455 409.985 529.471 410.821 521.243H363.322ZM519.264 521.243H471.375C473.712 530.814 483.405 538.047 494.021 538.393C505.734 539 515.831 532.287 519.264 521.402V521.243Z" fill="white"/>
</svg>
