<svg width="564" height="662" viewBox="0 0 564 662" fill="none" xmlns="http://www.w3.org/2000/svg">
<g clip-path="url(#clip0_3_282)">
<path d="M0 539.885C4.04074 555.055 10.8891 568.574 25.8759 575.078C34.1812 578.466 43.001 580.422 51.9604 580.862C66.4729 581.791 81.0803 581.108 96.4465 581.108C97.6037 609.115 109.214 631.339 131.618 647.475C145.478 657.35 162.182 662.436 179.196 661.962C214.273 661.697 255.705 633.519 258.702 581.658H548.117C548.952 609.286 560.789 631.13 582.833 647.267C596.82 657.426 613.818 662.588 631.094 661.924C669.908 661.204 708.02 629.291 709.747 581.07C713.825 581.07 717.961 581.07 722.115 581.07C753.948 580.805 773.905 560.819 773.924 528.925C773.924 440.132 773.924 351.334 773.924 262.528C773.924 229.876 753.758 209.833 721.015 209.814C656.047 209.814 591.06 209.814 526.054 209.814H515.867C515.867 200.523 515.867 191.554 515.867 182.604C515.867 166.657 510.48 161.404 494.43 161.366H469.389C471.59 158.408 473.032 156.303 474.625 154.312C507.634 112.937 540.643 71.5625 573.652 30.1875C575.742 27.6744 577.532 24.9252 578.982 21.996C580.378 18.8591 580.686 15.346 579.858 12.0141C579.03 8.68223 577.113 5.72201 574.41 3.60277C571.738 1.46438 568.442 0.252553 565.02 0.149944C561.598 0.0473347 558.236 1.05964 555.44 3.03405C552.705 5.25577 550.253 7.80288 548.136 10.6188C509.398 59.035 470.723 107.502 432.112 156.019C430.875 157.861 429.167 159.339 427.165 160.3C425.164 161.26 422.942 161.667 420.73 161.48C410.504 161.082 400.26 161.366 388.48 161.366C395.613 152.378 401.759 144.547 408 136.716C436.456 101.067 464.912 65.3998 493.368 29.7134C496.074 26.4362 498.07 22.6331 499.23 18.5448C500.918 11.7564 498.035 6.08685 492.078 2.48408C486.121 -1.11869 479.956 -1.04288 474.473 3.39422C471.42 6.01464 468.659 8.95832 466.24 12.1736C427.831 60.2106 389.472 108.286 351.165 156.398C349.978 158.117 348.353 159.487 346.458 160.367C344.564 161.247 342.469 161.605 340.389 161.404C329.823 161.101 319.237 161.158 308.67 161.404C296.814 161.613 290.61 167.87 290.402 179.816C290.231 189.297 290.402 198.968 290.402 209.795H59.966C24.2254 209.795 12.5396 217.721 0 250.677V539.885ZM741.845 500.52H732.967C699.977 500.52 666.968 500.653 633.978 500.52C599.831 500.368 573.86 514.438 557.166 544.739C556.199 546.484 554.131 548.74 552.518 548.797C540.529 549.138 528.54 548.987 516.379 548.987V435.803H686.014C704.852 435.803 709.329 431.385 709.329 412.821V326.506C709.329 314.901 709.519 303.297 709.234 291.692C708.969 280.903 703.05 275.138 692.161 274.626C689.144 274.474 686.128 274.626 683.093 274.626H33.0088C29.3665 248.174 37.0685 241.917 58.6381 241.936C278.533 242.239 498.427 242.302 718.321 242.125C736.666 242.125 741.845 247.245 741.845 265.373V500.615V500.52ZM289.965 548.968C278.849 548.968 268.548 548.683 258.247 549.101C253.049 549.29 250.298 547.602 247.851 542.881C239.414 526.313 225.152 513.442 207.804 506.74C168.781 491.058 126.382 506.607 106.216 543.526C104.983 545.782 102.232 548.683 100.146 548.721C82.7686 549.119 65.3916 549.195 48.0335 548.721C39.4019 548.494 33.54 543.336 32.8571 534.765C32.0224 523.578 32.6484 512.295 32.6484 500.501C42.8545 500.501 52.6434 500.615 62.4132 500.501C71.4622 500.349 77.8932 495.836 79.7713 488.707C82.5031 478.335 75.6547 469.024 64.3103 468.55C53.8385 468.095 43.3478 468.455 32.5156 468.455V436.485H289.965V548.968ZM32.4586 307.165H193.007V403.169H32.4586V307.165ZM483.2 436.106V548.361H419.724V436.087L483.2 436.106ZM386.45 436.106V548.361H322.974V436.087L386.45 436.106ZM628.534 629.518C615.804 629.414 603.628 624.3 594.644 615.285C585.661 606.269 580.592 594.079 580.538 581.355C580.538 554.808 603.018 532.452 629.197 532.869C641.923 533.12 654.052 538.314 663.011 547.351C671.971 556.388 677.057 568.557 677.193 581.279C677.171 587.638 675.894 593.931 673.435 599.796C670.976 605.662 667.383 610.985 662.864 615.46C658.344 619.936 652.985 623.476 647.094 625.879C641.203 628.281 634.896 629.499 628.534 629.461V629.518ZM177.679 629.518C164.821 629.559 152.473 624.501 143.34 615.455C134.208 606.408 129.037 594.111 128.962 581.26C129.132 568.534 134.243 556.373 143.216 547.343C152.189 538.314 164.322 533.124 177.052 532.869C203.061 532.452 225.124 554.22 225.484 580.615C225.603 586.973 224.455 593.291 222.107 599.201C219.76 605.111 216.26 610.496 211.811 615.041C207.363 619.587 202.054 623.203 196.194 625.678C190.334 628.154 184.04 629.44 177.679 629.461V629.518ZM613.148 403.454V307.26H676.738V403.454H613.148ZM516.398 403.454V307.26H579.988V403.454H516.398ZM419.478 403.454V307.411H483.162V403.454H419.478ZM322.728 307.279H386.526V403.302H322.728V307.279ZM226.148 403.511V307.317H289.738V403.511H226.148ZM322.728 194.284H483.181V209.454H322.728V194.284ZM693.641 533.172H740.403C740.688 541.478 736.969 547.185 728.926 548.228C720.541 549.29 711.53 550.276 703.638 548.228C699.597 546.977 697.378 539.032 693.641 533.059V533.172Z" fill="#D9D9D9"/>
<path d="M161.535 581.62C161.671 585.793 163.411 589.753 166.393 592.677C169.374 595.601 173.369 597.264 177.546 597.321C181.716 597.11 185.657 595.347 188.592 592.378C191.528 589.409 193.245 585.45 193.405 581.279C193.363 579.148 192.901 577.047 192.044 575.095C191.187 573.144 189.952 571.381 188.412 569.908C186.871 568.435 185.054 567.281 183.066 566.512C181.077 565.742 178.956 565.374 176.825 565.427C174.756 565.483 172.719 565.947 170.83 566.792C168.941 567.637 167.237 568.846 165.817 570.351C164.396 571.855 163.287 573.625 162.552 575.559C161.817 577.493 161.471 579.553 161.535 581.62Z" fill="white"/>
</g>
<defs>
<clipPath id="clip0_3_282">
<rect width="774" height="662" fill="white"/>
</clipPath>
</defs>
</svg>
