<svg width="774" height="662" viewBox="0 0 774 662" fill="none" xmlns="http://www.w3.org/2000/svg">
<path d="M0 539.885C4.04074 555.055 10.8891 568.575 25.8759 575.079C34.1812 578.466 43.001 580.422 51.9604 580.862C66.4729 581.791 81.0803 581.109 96.4465 581.109C97.6037 609.115 109.214 631.339 131.618 647.475C145.478 657.35 162.182 662.436 179.196 661.962C214.273 661.697 255.705 633.52 258.702 581.659H548.117C548.952 609.286 560.789 631.13 582.833 647.267C596.82 657.426 613.818 662.589 631.094 661.924C669.908 661.204 708.02 629.291 709.747 581.071C713.825 581.071 717.961 581.071 722.115 581.071C753.948 580.805 773.905 560.819 773.924 528.925C773.924 440.133 773.924 351.334 773.924 262.529C773.924 229.876 753.758 209.833 721.015 209.814C656.047 209.814 591.06 209.814 526.054 209.814H515.867C515.867 200.523 515.867 191.554 515.867 182.604C515.867 166.657 510.48 161.405 494.43 161.367H469.389C471.59 158.409 473.032 156.304 474.625 154.313C507.634 112.938 540.643 71.5627 573.652 30.1877C575.742 27.6746 577.532 24.9255 578.982 21.9963C580.378 18.8593 580.686 15.3463 579.858 12.0144C579.03 8.68248 577.113 5.72225 574.41 3.60302C571.738 1.46462 568.442 0.252797 565.02 0.150188C561.598 0.0475789 558.236 1.05989 555.44 3.0343C552.705 5.25602 550.253 7.80312 548.136 10.6191C509.398 59.0353 470.723 107.502 432.112 156.019C430.875 157.862 429.167 159.34 427.165 160.3C425.164 161.26 422.942 161.668 420.73 161.48C410.504 161.082 400.26 161.367 388.48 161.367C395.613 152.379 401.759 144.547 408 136.716C436.456 101.068 464.912 65.4001 493.368 29.7137C496.074 26.4364 498.07 22.6333 499.23 18.545C500.918 11.7567 498.035 6.0871 492.078 2.48432C486.121 -1.11845 479.956 -1.04264 474.473 3.39446C471.42 6.01489 468.659 8.95856 466.24 12.1739C427.831 60.2108 389.472 108.286 351.165 156.399C349.978 158.117 348.353 159.487 346.458 160.367C344.564 161.247 342.469 161.605 340.389 161.405C329.823 161.101 319.237 161.158 308.67 161.405C296.814 161.613 290.61 167.871 290.402 179.817C290.231 189.298 290.402 198.968 290.402 209.795H59.966C24.2254 209.795 12.5396 217.722 0 250.677V539.885ZM741.845 500.52H732.967C699.977 500.52 666.968 500.653 633.978 500.52C599.831 500.369 573.86 514.438 557.166 544.739C556.199 546.484 554.131 548.74 552.518 548.797C540.529 549.139 528.54 548.987 516.379 548.987V435.803H686.014C704.852 435.803 709.329 431.385 709.329 412.821V326.506C709.329 314.902 709.519 303.297 709.234 291.692C708.969 280.903 703.05 275.138 692.161 274.626C689.144 274.475 686.128 274.626 683.093 274.626H33.0088C29.3665 248.175 37.0685 241.917 58.6381 241.936C278.532 242.239 498.427 242.303 718.321 242.126C736.666 242.126 741.845 247.245 741.845 265.373V500.615V500.52ZM289.965 548.968C278.849 548.968 268.548 548.684 258.247 549.101C253.049 549.29 250.298 547.603 247.851 542.881C239.414 526.313 225.152 513.443 207.804 506.74C168.781 491.058 126.382 506.607 106.216 543.526C104.983 545.782 102.232 548.683 100.146 548.721C82.7686 549.12 65.3916 549.195 48.0335 548.721C39.4019 548.494 33.54 543.336 32.8571 534.765C32.0224 523.578 32.6484 512.296 32.6484 500.501C42.8545 500.501 52.6434 500.615 62.4132 500.501C71.4622 500.35 77.8932 495.837 79.7713 488.707C82.5031 478.335 75.6547 469.025 64.3103 468.55C53.8385 468.095 43.3478 468.456 32.5156 468.456V436.486H289.965V548.968ZM32.4586 307.165H193.007V403.17H32.4586V307.165ZM483.2 436.107V548.361H419.724V436.088L483.2 436.107ZM386.45 436.107V548.361H322.974V436.088L386.45 436.107ZM628.534 629.519C615.804 629.414 603.628 624.3 594.644 615.285C585.661 606.27 580.592 594.079 580.538 581.355C580.538 554.808 603.018 532.452 629.197 532.869C641.923 533.12 654.052 538.314 663.011 547.351C671.971 556.388 677.057 568.557 677.193 581.279C677.171 587.639 675.894 593.931 673.435 599.797C670.976 605.662 667.383 610.985 662.864 615.46C658.344 619.936 652.985 623.477 647.094 625.879C641.203 628.282 634.896 629.499 628.534 629.462V629.519ZM177.679 629.519C164.821 629.559 152.473 624.501 143.34 615.455C134.208 606.409 129.037 594.111 128.962 581.26C129.132 568.534 134.243 556.373 143.216 547.343C152.189 538.314 164.322 533.124 177.052 532.869C203.061 532.452 225.124 554.221 225.484 580.616C225.603 586.973 224.455 593.291 222.107 599.201C219.76 605.112 216.26 610.496 211.811 615.042C207.363 619.587 202.054 623.203 196.194 625.678C190.334 628.154 184.04 629.44 177.679 629.462V629.519ZM613.148 403.454V307.26H676.738V403.454H613.148ZM516.398 403.454V307.26H579.988V403.454H516.398ZM419.478 403.454V307.412H483.162V403.454H419.478ZM322.728 307.279H386.526V403.302H322.728V307.279ZM226.148 403.511V307.317H289.738V403.511H226.148ZM322.728 194.285H483.181V209.454H322.728V194.285ZM693.641 533.173H740.403C740.688 541.478 736.969 547.186 728.926 548.229C720.541 549.29 711.53 550.277 703.638 548.229C699.597 546.977 697.378 539.032 693.641 533.059V533.173Z" fill="#D9D9D9"/>
</svg>
