<svg width="575" height="492" viewBox="0 0 575 492" fill="none" xmlns="http://www.w3.org/2000/svg">
<path d="M0 401.244C3.00184 412.518 8.08944 422.566 19.223 427.4C25.393 429.917 31.9452 431.371 38.6011 431.698C49.3823 432.389 60.2341 431.881 71.6495 431.881C72.5092 452.696 81.1342 469.212 97.7782 481.205C108.075 488.544 120.484 492.324 133.124 491.972C159.182 491.775 189.961 470.833 192.188 432.29H407.193C407.813 452.823 416.607 469.057 432.983 481.05C443.374 488.601 456.002 492.437 468.836 491.944C497.671 491.408 525.984 467.69 527.267 431.853C530.297 431.853 533.369 431.853 536.455 431.853C560.104 431.656 574.93 416.802 574.944 393.098C574.944 327.108 574.944 261.112 574.944 195.112C574.944 170.844 559.963 155.949 535.638 155.934C487.374 155.934 439.095 155.934 390.803 155.934H383.235C383.235 149.029 383.235 142.363 383.235 135.712C383.235 123.86 379.232 119.956 367.309 119.928H348.707C350.341 117.73 351.412 116.165 352.596 114.685C377.118 83.9354 401.64 53.1855 426.162 22.4355C427.716 20.5678 429.045 18.5246 430.123 16.3476C431.159 14.0162 431.388 11.4053 430.773 8.92901C430.158 6.45274 428.734 4.25269 426.726 2.67767C424.741 1.08841 422.292 0.187777 419.75 0.111518C417.208 0.0352582 414.71 0.787609 412.633 2.25499C410.602 3.90618 408.78 5.7992 407.207 7.89202C378.429 43.8751 349.698 79.8956 321.013 115.954C320.094 117.323 318.825 118.421 317.339 119.135C315.852 119.849 314.201 120.152 312.558 120.012C304.961 119.717 297.351 119.928 288.599 119.928C293.898 113.248 298.464 107.428 303.101 101.608C324.241 75.1136 345.381 48.6054 366.52 22.0832C368.531 19.6475 370.014 16.821 370.875 13.7826C372.129 8.73748 369.987 4.52384 365.562 1.84625C361.137 -0.831336 356.556 -0.774993 352.483 2.52267C350.215 4.47018 348.164 6.65792 346.367 9.04754C317.833 44.7487 289.337 80.4782 260.878 116.236C259.996 117.513 258.789 118.531 257.382 119.185C255.974 119.839 254.418 120.105 252.873 119.956C245.023 119.731 237.159 119.773 229.309 119.956C220.501 120.111 215.893 124.762 215.738 133.64C215.611 140.686 215.738 147.873 215.738 155.92H44.5484C17.9969 155.92 9.31556 161.811 0 186.304V401.244ZM551.112 371.988H544.517C520.009 371.988 495.487 372.086 470.979 371.988C445.611 371.875 426.317 382.332 413.915 404.852C413.197 406.148 411.661 407.825 410.463 407.867C401.556 408.121 392.649 408.008 383.615 408.008V323.89H509.636C523.631 323.89 526.956 320.606 526.956 306.81V242.66C526.956 234.036 527.097 225.411 526.886 216.786C526.689 208.768 522.292 204.483 514.202 204.103C511.961 203.99 509.721 204.103 507.466 204.103H24.5221C21.8162 184.444 27.538 179.793 43.5619 179.807C206.92 180.033 370.278 180.08 533.637 179.948C547.265 179.948 551.112 183.753 551.112 197.226V372.058V371.988ZM215.414 407.994C207.155 407.994 199.502 407.783 191.85 408.093C187.988 408.234 185.945 406.98 184.127 403.471C177.859 391.157 167.264 381.592 154.376 376.61C125.387 364.956 93.8885 376.511 78.9075 403.95C77.9914 405.627 75.9479 407.783 74.3976 407.811C61.4883 408.107 48.5791 408.163 35.6838 407.811C29.2715 407.642 24.9167 403.809 24.4093 397.439C23.7892 389.124 24.2543 380.739 24.2543 371.974C31.8364 371.974 39.1084 372.058 46.3664 371.974C53.0888 371.861 57.8664 368.507 59.2616 363.208C61.291 355.499 56.2034 348.58 47.7757 348.228C39.9963 347.89 32.2028 348.157 24.1556 348.157V324.397H215.414V407.994ZM24.1133 228.286H143.384V299.637H24.1133V228.286ZM358.966 324.115V407.543H311.811V324.101L358.966 324.115ZM287.091 324.115V407.543H239.936V324.101L287.091 324.115ZM466.934 467.86C457.477 467.782 448.432 463.981 441.758 457.281C435.084 450.581 431.319 441.521 431.278 432.064C431.278 412.335 447.979 395.72 467.427 396.03C476.881 396.216 485.891 400.076 492.547 406.793C499.203 413.509 502.982 422.553 503.083 432.008C503.066 436.734 502.117 441.411 500.291 445.77C498.464 450.129 495.795 454.085 492.437 457.412C489.08 460.738 485.098 463.369 480.722 465.155C476.346 466.94 471.66 467.845 466.934 467.817V467.86ZM131.996 467.86C122.445 467.89 113.271 464.131 106.487 457.407C99.7023 450.684 95.861 441.545 95.8051 431.994C95.9312 422.536 99.7283 413.498 106.394 406.787C113.061 400.076 122.074 396.219 131.531 396.03C150.853 395.72 167.243 411.898 167.511 431.515C167.599 436.24 166.746 440.935 165.002 445.328C163.258 449.72 160.658 453.722 157.353 457.1C154.048 460.478 150.105 463.166 145.751 465.006C141.398 466.846 136.722 467.801 131.996 467.817V467.86ZM455.504 299.848V228.356H502.744V299.848H455.504ZM383.629 299.848V228.356H430.869V299.848H383.629ZM311.627 299.848V228.469H358.938V299.848H311.627ZM239.752 228.37H287.148V299.735H239.752V228.37ZM168.004 299.89V228.399H215.244V299.89H168.004ZM239.752 144.393H358.952V155.667H239.752V144.393ZM515.302 396.255H550.041C550.252 402.428 547.49 406.67 541.515 407.445C535.286 408.234 528.591 408.967 522.729 407.445C519.727 406.515 518.078 400.61 515.302 396.171V396.255Z" fill="#D9D9D9"/>
</svg>
